<?xml version="1.0" encoding="utf-8"?>
<!-- Generator: Adobe Illustrator 21.1.0, SVG Export Plug-In . SVG Version: 6.00 Build 0)  -->
<svg version="1.1" xmlns="http://www.w3.org/2000/svg" xmlns:xlink="http://www.w3.org/1999/xlink" x="0px" y="0px"
	 viewBox="0 0 600 600" style="enable-background:new 0 0 600 600;" xml:space="preserve">
<style type="text/css">
	.st0{fill:#C0E5F6;}
	.st1{fill:#858B8C;}
	.st2{fill:#B6BEBF;}
	.st3{fill:#E24328;}
	.st4{fill:#A31E21;}
	.st5{fill:#EAEAEA;}
	.st6{fill:#333333;}
	.st7{fill:#A2A7A8;}
	.st8{fill:#67503B;}
	.st9{opacity:0.44;fill:#3A2E23;}
	.st10{fill:url(#SVGID_1_);}
	.st11{fill:#FFD52A;}
	.st12{fill:#737781;}
	.st13{fill:#0E0F12;}
	.st14{fill:#010101;}
	.st15{fill:#353A43;}
	.st16{fill:#747780;}
	.st17{fill:#9AC6D6;}
	.st18{fill:#6A7172;}
	.st19{fill:#FEED59;}
	.st20{fill:#434343;}
	.st21{fill:#FFFFFF;}
	.st22{fill:#F9A923;}
	.st23{opacity:0.1;fill:#231F20;}
	.st24{fill:#EEB1AD;}
</style>
<g id="Warstwa_3">
</g>
<g id="Warstwa_2">
	<rect x="-0.2" class="st0" width="600.2" height="600"/>
	<path class="st1" d="M116.8,451H29V305.5v-12.1h14.3c0,0,0.1,11.8,5.3,12.1c8.3,0.5,7.5-11.3,7.5-11.3l11.9,0.2
		c0,0,1.8,11.3,6.8,11.2c4.7-0.1,7.3-11.2,7.3-11.2h11.7c0,0,0.8,11.3,6.4,11.2c5.1-0.1,5.5-11.3,5.5-11.3l11.1,0.1v11.2V451z"/>
	<rect x="171.8" y="162.3" class="st2" width="56.5" height="94.9"/>
	<rect x="243.7" y="205" class="st2" width="35.3" height="52.3"/>
	<rect x="116.8" y="205" class="st2" width="35.8" height="52.3"/>
	<polygon class="st3" points="160.8,205 109.7,205 134.6,164.2 153.8,193.3 	"/>
	<polygon class="st4" points="130.2,195.5 128.7,205 109.7,205 134.6,164.2 	"/>
	<polygon class="st3" points="240.7,162.3 164,162.3 201.4,101.1 230.2,144.8 	"/>
	<polygon class="st4" points="194.7,148.1 192.5,162.3 164,162.3 201.4,101.1 	"/>
	<polygon class="st3" points="287.2,205 238.5,205 262.3,166.2 280.5,193.9 	"/>
	<polygon class="st4" points="258,196 256.6,205 238.5,205 262.3,166.2 	"/>
	<path class="st1" d="M346.8,455.8H250V310.3v-12.1h15.8c0,0,0,12,5.8,12.1c4.7,0,8.3-11.3,8.3-11.3l13.1,0.2c0,0,1.9,11.3,7.5,11.2
		c5.1-0.1,8-11.2,8-11.2h12.9c0,0,0.9,11.3,7.1,11.2c5.6-0.1,6.1-11.3,6.1-11.3l12.2,0.1v11.2V455.8z"/>
	<polygon class="st5" points="137.5,168.6 134.6,164.2 134.6,152.4 137.5,152.4 	"/>
	<polygon class="st5" points="204.3,105.5 201.4,101.1 201.4,89.3 204.3,89.3 	"/>
	<polygon class="st5" points="265.2,170.6 262.3,166.2 262.3,154.5 265.2,154.5 	"/>
	<path class="st6" d="M200.8,205.6L200.8,205.6c-5.3,0-9.7-4.3-9.7-9.7v-15c0-5.3,4.3-9.7,9.7-9.7h0c5.3,0,9.7,4.3,9.7,9.7v15
		C210.5,201.3,206.2,205.6,200.8,205.6z"/>
	<rect x="191.2" y="190.5" class="st6" width="19.3" height="15.1"/>
	<path class="st6" d="M134.6,229.2L134.6,229.2c-2.7,0-4.8-2.2-4.8-4.8v-7.5c0-2.7,2.2-4.8,4.8-4.8l0,0c2.7,0,4.8,2.2,4.8,4.8v7.5
		C139.5,227,137.3,229.2,134.6,229.2z"/>
	<rect x="129.8" y="221.6" class="st6" width="9.7" height="7.5"/>
	<path class="st6" d="M263.7,230.2L263.7,230.2c-2.7,0-4.8-2.2-4.8-4.8v-7.5c0-2.7,2.2-4.8,4.8-4.8l0,0c2.7,0,4.8,2.2,4.8,4.8v7.5
		C268.5,228.1,266.4,230.2,263.7,230.2z"/>
	<rect x="258.9" y="222.7" class="st6" width="9.7" height="7.5"/>
	<path class="st6" d="M200.8,258.7L200.8,258.7c-5.3,0-9.7-4.3-9.7-9.7v-15c0-5.3,4.3-9.7,9.7-9.7h0c5.3,0,9.7,4.3,9.7,9.7v15
		C210.5,254.4,206.2,258.7,200.8,258.7z"/>
	<rect x="191.2" y="243.6" class="st6" width="19.3" height="15.1"/>
	<path class="st7" d="M284.5,451H116.3V246.1v-9.9h10.1c0,0,1,9.9,6.7,9.9c5.7,0,6.2-9.9,6.2-9.9h13.2c0,0,1,9.9,9,9.9
		c5.8,0,6.3-9.9,6.3-9.9h12.4c0,0,1.1,9.9,8.2,9.9c6.2,0,6.3-9.9,6.3-9.9h13.3c0,0,0.5,9.9,7.2,9.9c7.9,0,8-9.9,8-9.9h12.4
		c0,0,0.1,9.6,7.1,9.5c7.9-0.1,9.2-9.5,9.2-9.5h12.1c0,0,0.2,8.8,6.3,9c8.2,0.3,6.9-9,6.9-9h7.4V451z"/>
	<path class="st8" d="M201.4,430.3L201.4,430.3c-26.6,0-48.2-21.6-48.2-48.2v-49.2c0-26.6,21.6-48.2,48.2-48.2h0
		c26.6,0,48.2,21.6,48.2,48.2v49.2C249.6,408.7,228,430.3,201.4,430.3z"/>
	<path class="st9" d="M200.9,391.9L200.9,391.9c-2.7,0-4.9-2.2-4.9-4.9v-97.5c0-2.7,2.2-4.9,4.9-4.9l0,0c2.7,0,4.9,2.2,4.9,4.9v97.5
		C205.8,389.7,203.6,391.9,200.9,391.9z"/>
	<linearGradient id="SVGID_1_" gradientUnits="userSpaceOnUse" x1="300" y1="549.6185" x2="300" y2="327.115">
		<stop  offset="0" style="stop-color:#39B54A"/>
		<stop  offset="1" style="stop-color:#F9ED32"/>
	</linearGradient>
	<path class="st10" d="M600.2,600c0,0-48.5,0-276.3,0c-134.3,0-323.7,0-323.7,0c-1-2.7,0.3-16.4,0.3-61.7c0-45.3-0.3-81.7-0.3-81.7
		c75.3-48.1,194.6-79.1,328.9-79.1C556.9,377.5,600.2,489.8,600.2,600z"/>
	<path class="st6" d="M71.7,384.6L71.7,384.6c-2.7,0-4.8-2.2-4.8-4.8v-7.5c0-2.7,2.2-4.8,4.8-4.8h0c2.7,0,4.8,2.2,4.8,4.8v7.5
		C76.5,382.4,74.4,384.6,71.7,384.6z"/>
	<rect x="66.9" y="377" class="st6" width="9.7" height="7.5"/>
	<path class="st6" d="M70.6,339.7L70.6,339.7c-2.7,0-4.8-2.2-4.8-4.8v-7.5c0-2.7,2.2-4.8,4.8-4.8h0c2.7,0,4.8,2.2,4.8,4.8v7.5
		C75.5,337.5,73.3,339.7,70.6,339.7z"/>
	<rect x="65.8" y="332.1" class="st6" width="9.7" height="7.5"/>
	<g>
		<polygon class="st11" points="409.3,71.2 401.8,61.8 391.9,68.5 394.6,56.8 383.1,53.3 393.9,48 389.6,36.8 400.4,42 406.4,31.7 
			409.1,43.4 421,41.6 413.5,51 422.3,59.2 410.3,59.2 		"/>
		<path class="st12" d="M402.8,53.3c0.7-5.4,4.2-0.5,3.8,1.6c1.5,16.4-10.1,21.9-20.7,23.9l-4.2-3.2
			C390.1,70.8,402.5,73.6,402.8,53.3L402.8,53.3z"/>
		<path class="st13" d="M376,63.1c11.3,4.6,12.8,23.4,8.8,29.3c-1.8,2.7-7.9,0.2-11.6-1.4l-7.4-20.6C367.3,68.4,372.7,61.6,376,63.1
			L376,63.1z"/>
		<path class="st12" d="M375.8,65.6c0.5-0.3,1.9,0.5,2.4,0.7c5.9,2.8-1.6,8.4-3.3,8.2C369.8,70.5,370.7,69.2,375.8,65.6L375.8,65.6z
			"/>
		<path class="st14" d="M289.1,63.1c-16,21.1-11.8,51.2,9.2,67.2c21.1,16,51.2,11.9,67.3-9.2c3.7-4.9,6.5-10.5,8.1-16.5
			c-0.6-0.6-1.3-1.2-1.9-1.7c-1-0.8-1.9-1.5-2.9-2.1c-1-0.6-2-1.2-2.9-1.7c-1-0.5-2-1-3-1.4c-1-0.4-2-0.7-3-1.1c-1-0.3-2-0.5-3-0.8
			c-1-0.2-2-0.4-3-0.5c-1-0.1-2-0.3-3-0.3c-2-0.2-4-0.3-6.1-0.3c-4-0.1-8.1,0.1-12.2,0.1c-2,0-4-0.1-6.1-0.2c-1-0.1-2-0.2-3-0.3
			c-1-0.1-2-0.3-3-0.5c-1-0.2-2-0.4-3-0.7c-1-0.3-1.9-0.6-2.9-1c-1-0.4-2-0.8-2.9-1.3c-1-0.5-1.9-1-2.9-1.6c-1-0.6-1.9-1.3-2.9-2
			c-0.9-0.7-1.9-1.5-2.8-2.4c-0.9-0.9-1.9-1.8-2.8-2.9c-0.9-1.1-1.8-2.2-2.7-3.4c-0.9-1.2-1.8-2.5-2.7-3.9c-0.9-1.4-1.8-2.9-2.6-4.5
			c-0.9-1.6-1.7-3.3-2.6-5C289.7,64.6,289.4,63.8,289.1,63.1L289.1,63.1z"/>
		<path class="st15" d="M289.2,64.4c0,1.5,0.3,1.6,0.6,2.3c0.8,1.8,1.4,2.8,2.3,4.4c0.9,1.6,2,3,2.9,4.4c0.9,1.4,1.7,2.3,2.6,3.5
			c0.9,1.2,1.8,2.3,2.7,3.4c0.9,1,1.9,2,2.8,2.8c0.9,0.9,1.9,1.7,2.8,2.4c0.9,0.7,2.1,1.3,3,1.9c1,0.6,1.9,1.1,2.8,1.6
			s1.9,0.8,2.9,1.2c1,0.4,2,0.8,3,1.1s2,0.5,3,0.7c1,0.2,2,0.4,3,0.5c1,0.1,2,0.2,3,0.3c2,0.2,4,0.5,6,0.5c4,0,8.2,0.4,12.2,0.4
			c2,0,4-0.2,6,0c1,0.1,2.2,0,3.2,0.2c1,0.2,2.5,0.3,3.5,0.5c1,0.2,2,0.4,3,0.7c1,0.3,1.6,0.5,2.6,0.9c1,0.4,1.8,0.8,2.8,1.3
			s1.8,1.1,2.8,1.7c1,0.6,1.9,1.3,2.9,2.1c0.7,0.5,1.1,1.1,2,1.4c5.1-18.8-1.7-38.9-17.3-50.8c-21.1-16-51.2-11.9-67.3,9.2
			L289.2,64.4z"/>
		<path class="st16" d="M351.7,64.8c-6.8,11.2-24.8-16.4-57.5-2.7C325.4,34.2,358,54.6,351.7,64.8L351.7,64.8z"/>
	</g>
	<path class="st17" d="M68.2,187.3c-1.2-0.9,12.3-28.5,38.1-54.7c33.9-34.4,71.1-48.3,87.6-53.5c35.1-11,65.6-10.4,65.8-9.1
		c0.2,1.3-31.4,2.3-70.5,18.4c-9.7,4-39.2,16.8-70.5,43.6C85.6,160.4,69.5,188.2,68.2,187.3z"/>
	<path class="st17" d="M111.9,109.5c31.6-30,48.7-46.7,117-51.5c29.5-2.1,54.7,5.1,55,3.5c0.3-1.6-23.8-9.6-52.5-10.5
		c-16.7-0.5-48.8-1-81,19C126.6,84.8,109.2,112.1,111.9,109.5z"/>
	<circle class="st18" cx="-72" cy="148" r="0"/>
</g>
<g id="Warstwa_1">
	<g>
		<path class="st19" d="M214.9,445.2c0,0-50.8,52.9-41,62.6c9.8,9.8,41-3,41-3V445.2z"/>
		<path class="st19" d="M565.5,445.2c0,0,50.8,52.9,41,62.6c-9.8,9.8-41-3-41-3V445.2z"/>
		<path class="st19" d="M577.1,511.7c0,96.3-86.8,88.3-190.5,88.3s-184.9,8.1-184.9-88.3c0-96.3,84-225.4,187.7-225.4
			S577.1,415.4,577.1,511.7z"/>
		<g>
			<circle class="st20" cx="453.1" cy="386.5" r="32.9"/>
			<circle class="st21" cx="443.6" cy="377" r="13"/>
		</g>
		<g>
			<circle class="st20" cx="328.9" cy="386.5" r="32.9"/>
			<circle class="st21" cx="319.4" cy="377" r="13"/>
		</g>
		<g>
			<path class="st22" d="M347.9,442.2c0,0,21.6-22.1,38.6-27.4c17.1-5.3,44.5,27.4,44.5,27.4s-30.2,17.1-39.3,17.6
				C382.6,460.4,347.9,442.2,347.9,442.2z"/>
		</g>
		<path class="st19" d="M387,286.3c0,0,22.1-35.2,35.5-40.3c13.4-5.2,30,2.1,23.4,16.5c-6.5,14.5-52.4,27.9-53.8,27.6
			C390.8,289.7,387,286.3,387,286.3z"/>
		<path class="st19" d="M387,286.3c0,0,8.3-23.8,7.9-32.1c-0.3-8.3-11.4-12.4-16.2,0c-4.8,12.4,3.8,34.5,3.8,34.5L387,286.3z"/>
		<path class="st23" d="M246.1,549c-44.3-84,26.3-204.5,26.6-204.9c-43.2,46.3-70.9,112.4-70.9,167.7c0,40.8,21.3,88.3,40.3,88.3
			c1.3,0,44.1,0,44.1,0C271.8,587.7,257.8,571.2,246.1,549z"/>
		<circle class="st24" cx="297.7" cy="439" r="8.7"/>
		<circle class="st24" cx="488.2" cy="424.6" r="8.7"/>
		<path class="st23" d="M577.1,511.7c0-18.3-3.1-37.8-8.7-57.4c-0.4,0-0.7-0.1-1.1-0.1c0,0,7.2,99.8-45.3,131.6
			c-13.4,8.1-39.9,13.3-46.7,13.8c-2.2,0.2,61.4,0.3,61.4,0.3C562.1,580.8,577.1,552.5,577.1,511.7z"/>
		<g>
			<path class="st20" d="M322.1,343.8c13.9,11.7,27.8,23.4,41.7,35.1c2.6,2.2,6.5-1.6,3.8-3.8c-13.9-11.7-27.8-23.4-41.7-35.1
				C323.3,337.8,319.5,341.5,322.1,343.8L322.1,343.8z"/>
		</g>
		<g>
			<path class="st20" d="M454.7,341.9c-13.9,11.7-27.8,23.4-41.7,35.1c-2.7,2.2,1.2,6,3.8,3.8c13.9-11.7,27.8-23.4,41.7-35.1
				C461.2,343.4,457.3,339.7,454.7,341.9L454.7,341.9z"/>
		</g>
	</g>
</g>
</svg>
