<?xml version="1.0" encoding="UTF-8" standalone="no"?>
<!-- Created with Inkscape (http://www.inkscape.org/) -->

<svg
   xmlns:dc="http://purl.org/dc/elements/1.1/"
   xmlns:cc="http://creativecommons.org/ns#"
   xmlns:rdf="http://www.w3.org/1999/02/22-rdf-syntax-ns#"
   xmlns:svg="http://www.w3.org/2000/svg"
   xmlns="http://www.w3.org/2000/svg"
   xmlns:sodipodi="http://sodipodi.sourceforge.net/DTD/sodipodi-0.dtd"
   xmlns:inkscape="http://www.inkscape.org/namespaces/inkscape"
   width="500"
   height="500"
   viewBox="0 0 132.29166 132.29167"
   version="1.1"
   id="svg5881"
   inkscape:version="0.92.1 r15371"
   sodipodi:docname="bomb.svg">
  <defs
     id="defs5875" />
  <sodipodi:namedview
     id="base"
     pagecolor="#ffffff"
     bordercolor="#666666"
     borderopacity="1.0"
     inkscape:pageopacity="0.0"
     inkscape:pageshadow="2"
     inkscape:zoom="0.7"
     inkscape:cx="679.99066"
     inkscape:cy="252.04334"
     inkscape:document-units="mm"
     inkscape:current-layer="layer1"
     showgrid="false"
     units="px"
     inkscape:window-width="1920"
     inkscape:window-height="1001"
     inkscape:window-x="-9"
     inkscape:window-y="-9"
     inkscape:window-maximized="1" />
  <metadata
     id="metadata5878">
    <rdf:RDF>
      <cc:Work
         rdf:about="">
        <dc:format>image/svg+xml</dc:format>
        <dc:type
           rdf:resource="http://purl.org/dc/dcmitype/StillImage" />
        <dc:title></dc:title>
      </cc:Work>
    </rdf:RDF>
  </metadata>
  <g
     inkscape:groupmode="layer"
     id="layer11"
     inkscape:label="Layer 4">
    <path
       sodipodi:type="star"
       style="opacity:1;fill:#ffd42a;fill-opacity:1;fill-rule:nonzero;stroke-width:0.24077694"
       id="path6559"
       sodipodi:sides="7"
       sodipodi:cx="93.261207"
       sodipodi:cy="18.99003"
       sodipodi:r1="16.63402"
       sodipodi:r2="8.3170099"
       sodipodi:arg1="0.62385524"
       sodipodi:arg2="1.0726542"
       inkscape:flatsided="false"
       inkscape:rounded="0"
       inkscape:randomized="0"
       d="m 106.76192,28.707101 -9.526893,-2.410812 -3.153377,9.307515 -4.055069,-8.951539 -9.243008,3.337732 4.470301,-8.751574 -8.372464,-5.145433 9.629443,-1.961495 -1.197285,-9.7539813 7.537418,6.3056293 6.879475,-7.0175826 -0.230436,9.8244866 9.775845,1.003198 -7.82476,5.945305 z"
       inkscape:transform-center-x="0.18256389"
       inkscape:transform-center-y="0.64465203" />
  </g>
  <g
     inkscape:groupmode="layer"
     id="layer10"
     inkscape:label="Layer 3">
    <path
       style="opacity:1;fill:#727680;fill-opacity:1;fill-rule:nonzero;stroke-width:0.13966842"
       d="m 93.631742,20.309209 c -2.2014,-3.928616 2.499351,-2.470017 3.280597,-0.897868 9.139731,9.950655 4.252021,19.278575 -1.657708,25.867423 h -4.37367 c 3.140079,-7.354729 12.582089,-11.62775 2.750781,-24.969555 z"
       id="rect6521"
       inkscape:connector-curvature="0"
       sodipodi:nodetypes="ccccc" />
  </g>
  <g
     inkscape:groupmode="layer"
     id="layer8"
     inkscape:label="Layer 2">
    <path
       style="opacity:1;fill:#0a0b10;fill-opacity:1;fill-rule:nonzero;stroke-width:0.21483982"
       d="m 81.047865,39.922484 c 9.622935,-2.587004 19.911665,8.915946 20.182945,14.757428 0.17594,2.613306 -5.002044,4.050657 -8.246796,4.774461 L 78.009571,49.688427 c -0.07235,-2.007443 0.109412,-9.097018 3.038294,-9.765943 z"
       id="rect6512"
       inkscape:connector-curvature="0"
       sodipodi:nodetypes="ccccc" />
    <path
       style="opacity:1;fill:#727680;fill-opacity:1;fill-rule:nonzero;stroke-width:0.21483982"
       d="m 82.160914,41.691235 c 0.217387,-0.478478 1.46471,-0.640233 1.939933,-0.737014 5.223683,-1.063831 3.05837,6.263293 1.915681,6.999979 -5.334583,-0.14009 -5.445087,-1.406214 -3.855614,-6.262965 z"
       id="rect6517"
       inkscape:connector-curvature="0"
       sodipodi:nodetypes="cscc" />
  </g>
  <g
     inkscape:label="Layer 1"
     inkscape:groupmode="layer"
     id="layer1"
     transform="translate(0,-164.70832)">
    <path
       style="opacity:1;fill:#000000;fill-opacity:1;fill-rule:nonzero;stroke-width:0.21483982"
       d="m 24.407129,247.64676 a 39.280802,39.280802 0 0 0 39.279181,39.23513 39.280802,39.280802 0 0 0 39.28085,-39.28086 39.280802,39.280802 0 0 0 -2.88817,-14.72241 c -0.69855,-0.0595 -1.404164,-0.13013 -2.074123,-0.14518 -1.004047,-0.0226 -1.97688,0.004 -2.921311,0.0734 -0.94444,0.07 -1.860579,0.18367 -2.750963,0.33736 -0.890384,0.15368 -1.75507,0.34705 -2.59696,0.57571 -0.84189,0.22864 -1.660792,0.49274 -2.459742,0.7876 -0.798955,0.29485 -1.578172,0.62079 -2.339743,0.97306 -0.761571,0.3523 -1.505506,0.73115 -2.235253,1.13211 -0.729757,0.40097 -1.445335,0.82384 -2.14882,1.2647 -1.406968,0.88173 -2.766843,1.83443 -4.102093,2.82314 -2.670523,1.97742 -5.241996,4.09892 -7.89243,6.08349 -1.325218,0.99229 -2.670313,1.95021 -4.057202,2.83907 -0.693442,0.44444 -1.39721,0.87145 -2.114407,1.27687 -0.717198,0.40543 -1.447628,0.78914 -2.194135,1.14679 -0.746511,0.35765 -1.50927,0.68958 -2.290647,0.99069 -0.781379,0.30113 -1.581296,0.57153 -2.403101,0.80734 -0.821805,0.2358 -1.665391,0.43705 -2.53318,0.59878 -0.867791,0.16173 -1.759871,0.28407 -2.679203,0.36296 -0.919333,0.0789 -1.866001,0.11432 -2.842433,0.10151 -0.976429,-0.0126 -1.982516,-0.0736 -3.021604,-0.18673 -1.039087,-0.11305 -2.111097,-0.27835 -3.218402,-0.50059 -1.107302,-0.22224 -2.250065,-0.50159 -3.431142,-0.84174 -1.181075,-0.34014 -2.400263,-0.74123 -3.66067,-1.20804 -1.260404,-0.46684 -2.562104,-0.99938 -3.9074,-1.60165 -1.345292,-0.60227 -2.734334,-1.27435 -4.170073,-2.02085 -0.524865,-0.27288 -1.089364,-0.60876 -1.626824,-0.90173 z"
       id="path6506"
       inkscape:connector-curvature="0" />
    <path
       style="opacity:1;fill:#353942;fill-opacity:1;fill-rule:nonzero;stroke-width:0.21483982"
       d="m 25.098884,248.43347 c 0.75448,0.9169 1.01672,0.89852 1.541585,1.17141 1.435739,0.7465 2.353904,1.14889 3.699196,1.75116 1.345295,0.60227 2.796197,0.9178 4.056601,1.38463 1.260408,0.46682 2.221884,0.67122 3.402959,1.01138 1.181075,0.34015 2.325484,0.64931 3.432788,0.87155 1.107304,0.22223 2.217677,0.33955 3.256765,0.45264 1.039088,0.11306 2.073948,0.174 3.050377,0.18672 0.976432,0.0126 1.990238,-0.16651 2.90957,-0.2454 0.919332,-0.0789 1.744275,-0.23001 2.612066,-0.39174 0.867789,-0.16173 1.676502,-0.42992 2.498307,-0.66573 0.821806,-0.2358 1.669196,-0.46551 2.450575,-0.76662 0.781377,-0.30113 1.53633,-0.65476 2.28284,-1.01242 0.746509,-0.35765 1.500916,-0.73655 2.218115,-1.14199 0.717197,-0.40542 1.387396,-0.8708 2.080839,-1.31524 1.386887,-0.88886 2.871453,-1.64909 4.196669,-2.64138 2.650435,-1.98456 5.509241,-3.79063 8.179759,-5.76805 1.335259,-0.98871 2.489177,-2.06695 3.896146,-2.94867 0.703484,-0.44086 1.432631,-1.05363 2.162387,-1.4546 0.729748,-0.40095 1.733203,-1.04944 2.494774,-1.40172 0.761571,-0.3523 1.512022,-0.707 2.310963,-1.00185 0.798955,-0.29486 1.326077,-0.5047 2.167966,-0.73335 0.841881,-0.22866 1.564148,-0.35421 2.454542,-0.50789 0.890375,-0.15369 1.745478,-0.21316 2.689918,-0.28312 0.94444,-0.0699 1.896925,-0.0824 2.900972,-0.0599 0.66995,0.015 1.272531,0.19793 2.033427,-0.0447 -5.996933,-14.83414 -20.39221,-24.54835 -36.39268,-24.55845 -21.694233,-3e-5 -39.280893,17.58663 -39.28086,39.28086 z"
       id="path6437"
       inkscape:connector-curvature="0"
       sodipodi:nodetypes="ccssccscscccccssscscssscscccc" />
    <path
       style="opacity:1;fill:#737780;fill-opacity:1;fill-rule:nonzero;stroke-width:0.21483982"
       d="m 65.989914,217.76376 c 1.106905,10.61649 -24.294122,1.53588 -38.783969,26.70528 6.540207,-33.61203 37.913378,-36.46948 38.783969,-26.70528 z"
       id="rect6508"
       inkscape:connector-curvature="0"
       sodipodi:nodetypes="ccc" />
  </g>
</svg>
