<?xml version="1.0" encoding="UTF-8" standalone="no"?>
<!-- Created with Inkscape (http://www.inkscape.org/) -->

<svg
  xmlns:dc="http://purl.org/dc/elements/1.1/"
  xmlns:cc="http://creativecommons.org/ns#"
  xmlns:rdf="http://www.w3.org/1999/02/22-rdf-syntax-ns#"
  xmlns="http://www.w3.org/2000/svg"
  xmlns:sodipodi="http://sodipodi.sourceforge.net/DTD/sodipodi-0.dtd"
  xmlns:inkscape="http://www.inkscape.org/namespaces/inkscape"
  width="200"
  height="200"
  viewBox="0 0 52.916665 52.916668"
  version="1.1"
  id="svg5574"
  inkscape:version="0.92.1 r15371"
  sodipodi:docname="tower.svg">
  <defs
    id="defs5568"/>
  <sodipodi:namedview
    id="base"
    pagecolor="#ffffff"
    bordercolor="#666666"
    borderopacity="1.0"
    inkscape:pageopacity="0.0"
    inkscape:pageshadow="2"
    inkscape:zoom="1.4"
    inkscape:cx="43.675519"
    inkscape:cy="202.01142"
    inkscape:document-units="mm"
    inkscape:current-layer="layer1"
    showgrid="false"
    units="px"
    inkscape:window-width="1920"
    inkscape:window-height="1001"
    inkscape:window-x="-9"
    inkscape:window-y="-9"
    inkscape:window-maximized="1"/>
  <metadata
    id="metadata5571">
    <rdf:RDF>
      <cc:Work
        rdf:about="">
        <dc:format>image/svg+xml</dc:format>
        <dc:type
          rdf:resource="http://purl.org/dc/dcmitype/StillImage"/>
        <dc:title></dc:title>
      </cc:Work>
    </rdf:RDF>
  </metadata>
  <g
    inkscape:groupmode="layer"
    id="layer2"
    inkscape:label="Layer 2">
    <rect
      style="opacity:1;fill:#c9cacc;fill-opacity:1;fill-rule:nonzero;stroke-width:0.26879656"
      id="rect6160"
      width="52.830311"
      height="52.824581"
      x="0.063916445"
      y="0.033027727"/>
  </g>
  <g
    inkscape:label="Layer 1"
    inkscape:groupmode="layer"
    id="layer1"
    transform="translate(0,-244.08332)">
    <path
      inkscape:connector-curvature="0"
      class="st6"
      d="m 41.649171,251.53898 c 0,0.48272 -0.478074,0.91179 -1.015936,0.91179 H 23.720829 c -0.537839,0 -1.015937,-0.42907 -1.015937,-0.91179 v -5.30988 c 0,-0.48273 0.478098,-0.9118 1.015937,-0.9118 h 16.912406 c 0.537862,0 1.015936,0.42907 1.015936,0.9118 z"
      id="path1610"
      style="stroke-width:0.566154;fill:#b74415;fill-opacity:1"/>
    <path
      inkscape:connector-curvature="0"
      class="st6"
      d="m 31.011697,260.17425 c 0,0.48273 -0.478098,0.91181 -1.015937,0.91181 H 13.083353 c -0.537838,0 -1.015935,-0.42908 -1.015935,-0.91181 v -5.30988 c 0,-0.48273 0.478097,-0.9118 1.015935,-0.9118 H 29.99576 c 0.537839,0 1.015937,0.42907 1.015937,0.9118 z"
      id="path1614"
      style="stroke-width:0.566154;fill:#e6e7e8;fill-opacity:1"/>
    <path
      inkscape:connector-curvature="0"
      class="st6"
      d="m 52.346433,260.17425 c 0,0.48273 -0.478096,0.91181 -1.015957,0.91181 H 34.418092 c -0.537862,0 -1.015958,-0.42908 -1.015958,-0.91181 v -5.30988 c 0,-0.48273 0.478096,-0.9118 1.015958,-0.9118 h 16.912384 c 0.537861,0 1.015957,0.42907 1.015957,0.9118 z"
      id="path1616"
      style="stroke-width:0.566154;fill:#e6e7e8;fill-opacity:1"/>
    <path
      inkscape:connector-curvature="0"
      class="st6"
      d="m 41.649171,269.13136 c 0,0.4827 -0.478074,0.91179 -1.015936,0.91179 H 23.720829 c -0.537839,0 -1.015937,-0.42909 -1.015937,-0.91179 v -5.3099 c 0,-0.48271 0.478098,-0.9118 1.015937,-0.9118 h 16.912406 c 0.537862,0 1.015936,0.42909 1.015936,0.9118 z"
      id="path1618"
      style="stroke-width:0.566154;fill:#e6e7e8;fill-opacity:1"/>
    <path
      inkscape:connector-curvature="0"
      class="st6"
      d="m 52.525705,269.13136 c 0,0.4827 -0.179339,0.91179 -0.478096,0.91179 h -7.529903 c -0.239037,0 -0.478075,-0.42909 -0.478075,-0.91179 v -5.3099 c 0,-0.48271 0.179339,-0.9118 0.478075,-0.9118 h 7.529903 c 0.239059,0 0.478096,0.42909 0.478096,0.9118 z"
      id="path1620"
      style="stroke-width:0.566154;fill:#b74415;fill-opacity:1"/>
    <path
      inkscape:connector-curvature="0"
      class="st6"
      d="m 31.011697,277.76663 c 0,0.48271 -0.478098,0.91179 -1.015937,0.91179 H 13.083353 c -0.537838,0 -1.015935,-0.42908 -1.015935,-0.91179 v -5.3099 c 0,-0.48271 0.478097,-0.9118 1.015935,-0.9118 H 29.99576 c 0.537839,0 1.015937,0.42909 1.015937,0.9118 z"
      id="path1622"
      style="stroke-width:0.566154;fill:#eeefef;fill-opacity:1"/>
    <path
      inkscape:connector-curvature="0"
      class="st6"
      d="m 52.346433,277.76663 c 0,0.48271 -0.478096,0.91179 -1.015957,0.91179 H 34.418092 c -0.537862,0 -1.015958,-0.42908 -1.015958,-0.91179 v -5.3099 c 0,-0.48271 0.478096,-0.9118 1.015958,-0.9118 h 16.912384 c 0.537861,0 1.015957,0.42909 1.015957,0.9118 z"
      id="path1624"
      style="stroke-width:0.566154;fill:#eeefef;fill-opacity:1"/>
    <path
      inkscape:connector-curvature="0"
      class="st6"
      d="m 41.649171,286.72372 c 0,0.4827 -0.478074,0.91179 -1.015936,0.91179 H 23.720829 c -0.537839,0 -1.015937,-0.42909 -1.015937,-0.91179 v -5.3099 c 0,-0.48271 0.478098,-0.9118 1.015937,-0.9118 h 16.912406 c 0.537862,0 1.015936,0.42909 1.015936,0.9118 z"
      id="path1626"
      style="stroke-width:0.566154;fill:#d5dada;fill-opacity:1"/>
    <path
      inkscape:connector-curvature="0"
      class="st6"
      d="m 52.346433,286.72372 c 0,0.4827 -0.17934,0.91179 -0.418331,0.91179 h -7.410396 c -0.239037,0 -0.418309,-0.42909 -0.418309,-0.91179 v -5.3099 c 0,-0.48271 0.17934,-0.9118 0.418309,-0.9118 h 7.410396 c 0.239037,0 0.418331,0.42909 0.418331,0.9118 z"
      id="path1628"
      style="stroke-width:0.566154;fill:#b74415;fill-opacity:1"/>
    <path
      inkscape:connector-curvature="0"
      class="st6"
      d="m 31.011697,295.41263 c 0,0.4827 -0.478098,0.9118 -1.015937,0.9118 H 13.083353 c -0.537838,0 -1.015935,-0.4291 -1.015935,-0.9118 v -5.3099 c 0,-0.48271 0.478097,-0.91179 1.015935,-0.91179 H 29.99576 c 0.537839,0 1.015937,0.42908 1.015937,0.91179 z"
      id="path1630"
      style="stroke-width:0.566154;fill:#b74415;fill-opacity:1"/>
    <path
      inkscape:connector-curvature="0"
      class="st6"
      d="m 52.346433,295.41263 c 0,0.4827 -0.478096,0.9118 -1.015957,0.9118 H 34.418092 c -0.537862,0 -1.015958,-0.4291 -1.015958,-0.9118 v -5.3099 c 0,-0.48271 0.478096,-0.91179 1.015958,-0.91179 h 16.912384 c 0.537861,0 1.015957,0.42908 1.015957,0.91179 z"
      id="path1632"
      style="stroke-width:0.566154;fill:#b74415;fill-opacity:1"/>
    <path
      inkscape:connector-curvature="0"
      class="st6"
      d="m 0.83231639,245.74637 c 0,-0.48271 0.47809661,-0.9118 1.01593561,-0.9118 h 16.912405 c 0.537863,0 1.015936,0.42909 1.015936,0.9118 v 5.3099 c 0,0.48271 -0.478073,0.91179 -1.015936,0.91179 H 1.848252 c -0.537839,0 -1.01593561,-0.42908 -1.01593561,-0.91179"
      id="path1686"
      style="stroke-width:0.566154;fill:#b74415;fill-opacity:1"/>
    <path
      inkscape:connector-curvature="0"
      class="st6"
      d="M 0.83231639,253.52349 H 8.6610218 c 0.2390596,0 0.4780966,0.42908 0.4780966,0.91179 v 5.3099 c 0,0.48271 -0.1793398,0.9118 -0.4780966,0.9118 H 0.83231639"
      id="path1688"
      style="stroke-width:0.566154;fill:#b74415;fill-opacity:1"/>
    <path
      inkscape:connector-curvature="0"
      class="st6"
      d="m 0.83231639,263.39236 c 0,-0.4827 0.47809661,-0.91179 1.01593561,-0.91179 h 16.912405 c 0.537863,0 1.015936,0.42909 1.015936,0.91179 v 5.3099 c 0,0.48272 -0.478073,0.9118 -1.015936,0.9118 H 1.848252 c -0.537839,0 -1.01593561,-0.42908 -1.01593561,-0.9118"
      id="path1690"
      style="stroke-width:0.566154;fill:#e6e7e8;fill-opacity:1"/>
    <path
      inkscape:connector-curvature="0"
      class="st6"
      d="M 0.59327937,271.11585 H 8.6610218 c 0.2390596,0 0.4780966,0.42908 0.4780966,0.91181 v 5.30988 c 0,0.48273 -0.239037,0.9118 -0.4780966,0.9118 H 0.59327937"
      id="path1692"
      style="stroke-width:0.566154;fill:#b74415;fill-opacity:1"/>
    <path
      inkscape:connector-curvature="0"
      class="st6"
      d="m 0.83231639,280.98474 c 0,-0.48272 0.47809661,-0.91179 1.01593561,-0.91179 h 16.912405 c 0.537863,0 1.015936,0.42907 1.015936,0.91179 v 5.30989 c 0,0.48273 -0.478073,0.91179 -1.015936,0.91179 H 1.848252 c -0.537839,0 -1.01593561,-0.42906 -1.01593561,-0.91179"
      id="path1694"
      style="stroke-width:0.566154;fill:#d5dada;fill-opacity:1"/>
    <path
      inkscape:connector-curvature="0"
      class="st6"
      d="M 0.83231639,288.76186 H 8.6610218 c 0.2390596,0 0.4780966,0.42908 0.4780966,0.9118 v 5.30988 c 0,0.48273 -0.1793398,0.91179 -0.4780966,0.91179 H 0.83231639"
      id="path1696"
      style="stroke-width:0.566154;fill:#b74415;fill-opacity:1"/>
    <path
      inkscape:connector-curvature="0"
      class="st6"
      d="m 44.466635,245.3173 h 7.828705 c 0.239061,0 0.478097,0.42907 0.478097,0.9118 v 5.30988 c 0,0.48272 -0.17934,0.91179 -0.478097,0.91179 h -7.828705"
      id="path1930"
      style="stroke-width:0.566154;fill:#b74415;fill-opacity:1"/>
    <rect
      style="opacity:1;fill:#aeb0b4;fill-opacity:1;fill-rule:nonzero;stroke-width:0.25451136"
      id="rect6203"
      width="11.474529"
      height="52.816822"
      x="0.063916445"
      y="244.11635"/>
    <rect
      style="opacity:1;fill:#aeb0b4;fill-opacity:1;fill-rule:nonzero;stroke-width:0.25463158"
      id="rect6203-7"
      width="11.474529"
      height="52.866734"
      x="41.419693"
      y="244.07422"/>
    <rect
      style="opacity:1;fill:#aeb0b4;fill-opacity:1;fill-rule:nonzero;stroke-width:0.25463158"
      id="rect6203-7-2"
      width="11.474529"
      height="52.866734"
      x="-255.59088"
      y="0.063916445"
      transform="rotate(-90)"/>
    <rect
      style="opacity:1;fill:#aeb0b4;fill-opacity:1;fill-rule:nonzero;stroke-width:0.25463158"
      id="rect6203-7-2-5"
      width="11.474529"
      height="52.866734"
      x="-296.94092"
      y="0.027493715"
      transform="rotate(-90)"/>
    <circle
      style="opacity:1;fill:#818181;fill-opacity:1;fill-rule:nonzero;stroke-width:0.30238095"
      id="path6336"
      cx="7.3705354"
      cy="251.07588"
      r="11.339286"/>
    <circle
      style="opacity:1;fill:#818181;fill-opacity:1;fill-rule:nonzero;stroke-width:0.30238098"
      id="path6336-5"
      cx="46.869049"
      cy="250.88689"
      r="11.339286"/>
    <circle
      style="opacity:1;fill:#818181;fill-opacity:1;fill-rule:nonzero;stroke-width:0.30238098"
      id="path6336-9"
      cx="7.9374981"
      cy="290.19644"
      r="11.339286"/>
    <circle
      style="opacity:1;fill:#818181;fill-opacity:1;fill-rule:nonzero;stroke-width:0.30238098"
      id="path6336-6"
      cx="46.869049"
      cy="290.38541"
      r="11.339286"/>
    <circle
      style="opacity:1;fill:#f2f2f2;fill-opacity:1;fill-rule:nonzero;stroke-width:0.18394844"
      id="path6336-6-7"
      cx="47.152531"
      cy="290.29089"
      r="6.898066"/>
    <circle
      style="opacity:1;fill:#f2f2f2;fill-opacity:1;fill-rule:nonzero;stroke-width:0.18394844"
      id="path6336-6-7-6"
      cx="7.8844519"
      cy="290.05096"
      r="6.898066"/>
    <circle
      style="opacity:1;fill:#f2f2f2;fill-opacity:1;fill-rule:nonzero;stroke-width:0.18394844"
      id="path6336-6-7-0"
      cx="7.2830949"
      cy="251.02963"
      r="6.898066"/>
    <circle
      style="opacity:1;fill:#f2f2f2;fill-opacity:1;fill-rule:nonzero;stroke-width:0.18394844"
      id="path6336-6-7-1"
      cx="46.939209"
      cy="250.79578"
      r="6.898066"/>
  </g>
</svg>
